<svg width="369" height="55" viewBox="0 0 369 55" fill="none" xmlns="http://www.w3.org/2000/svg">
<g clip-path="url(#clip0_11_2)">
<path d="M2.30398 4.36364H11.9773L24.9318 35.983H25.4432L38.3977 4.36364H48.071V48H40.4858V18.0213H40.081L28.0213 47.8722H22.3537L10.294 17.9574H9.88921V48H2.30398V4.36364ZM95.6705 26.1818C95.6705 30.8835 94.7898 34.9105 93.0284 38.2628C91.2813 41.6009 88.8949 44.1577 85.8693 45.9332C82.858 47.7088 79.4418 48.5966 75.6207 48.5966C71.7997 48.5966 68.3764 47.7088 65.3509 45.9332C62.3395 44.1435 59.9531 41.5795 58.1918 38.2415C56.4446 34.8892 55.571 30.8693 55.571 26.1818C55.571 21.4801 56.4446 17.4602 58.1918 14.1222C59.9531 10.7699 62.3395 8.20597 65.3509 6.4304C68.3764 4.65483 71.7997 3.76704 75.6207 3.76704C79.4418 3.76704 82.858 4.65483 85.8693 6.4304C88.8949 8.20597 91.2813 10.7699 93.0284 14.1222C94.7898 17.4602 95.6705 21.4801 95.6705 26.1818ZM87.723 26.1818C87.723 22.8722 87.2045 20.081 86.1676 17.8082C85.1449 15.5213 83.7244 13.7955 81.9062 12.6307C80.0881 11.4517 77.9929 10.8622 75.6207 10.8622C73.2486 10.8622 71.1534 11.4517 69.3352 12.6307C67.517 13.7955 66.0895 15.5213 65.0526 17.8082C64.0298 20.081 63.5185 22.8722 63.5185 26.1818C63.5185 29.4915 64.0298 32.2898 65.0526 34.5767C66.0895 36.8494 67.517 38.5753 69.3352 39.7543C71.1534 40.919 73.2486 41.5014 75.6207 41.5014C77.9929 41.5014 80.0881 40.919 81.9062 39.7543C83.7244 38.5753 85.1449 36.8494 86.1676 34.5767C87.2045 32.2898 87.723 29.4915 87.723 26.1818ZM142.135 26.1818C142.135 30.8835 141.255 34.9105 139.493 38.2628C137.746 41.6009 135.36 44.1577 132.334 45.9332C129.323 47.7088 125.907 48.5966 122.086 48.5966C118.265 48.5966 114.841 47.7088 111.816 45.9332C108.804 44.1435 106.418 41.5795 104.657 38.2415C102.909 34.8892 102.036 30.8693 102.036 26.1818C102.036 21.4801 102.909 17.4602 104.657 14.1222C106.418 10.7699 108.804 8.20597 111.816 6.4304C114.841 4.65483 118.265 3.76704 122.086 3.76704C125.907 3.76704 129.323 4.65483 132.334 6.4304C135.36 8.20597 137.746 10.7699 139.493 14.1222C141.255 17.4602 142.135 21.4801 142.135 26.1818ZM134.188 26.1818C134.188 22.8722 133.669 20.081 132.632 17.8082C131.61 15.5213 130.189 13.7955 128.371 12.6307C126.553 11.4517 124.458 10.8622 122.086 10.8622C119.713 10.8622 117.618 11.4517 115.8 12.6307C113.982 13.7955 112.554 15.5213 111.517 17.8082C110.495 20.081 109.983 22.8722 109.983 26.1818C109.983 29.4915 110.495 32.2898 111.517 34.5767C112.554 36.8494 113.982 38.5753 115.8 39.7543C117.618 40.919 119.713 41.5014 122.086 41.5014C124.458 41.5014 126.553 40.919 128.371 39.7543C130.189 38.5753 131.61 36.8494 132.632 34.5767C133.669 32.2898 134.188 29.4915 134.188 26.1818ZM185.468 4.36364V48H178.437L157.876 18.277H157.513V48H149.609V4.36364H156.683L177.222 34.108H177.606V4.36364H185.468ZM194.081 48V4.36364H201.986V41.3736H221.205V48H194.081ZM235.971 4.36364V48H228.066V4.36364H235.971ZM273.763 18.2983C273.408 17.1477 272.918 16.1179 272.293 15.2088C271.683 14.2855 270.944 13.4972 270.077 12.8438C269.225 12.1903 268.245 11.7003 267.137 11.3736C266.029 11.0327 264.822 10.8622 263.515 10.8622C261.171 10.8622 259.083 11.4517 257.251 12.6307C255.418 13.8097 253.977 15.5426 252.925 17.8295C251.888 20.1023 251.37 22.8722 251.37 26.1392C251.37 29.4347 251.888 32.2259 252.925 34.5128C253.962 36.7997 255.404 38.5398 257.251 39.733C259.097 40.9119 261.242 41.5014 263.685 41.5014C265.901 41.5014 267.819 41.0753 269.438 40.223C271.072 39.3707 272.329 38.1634 273.21 36.6009C274.09 35.0241 274.531 33.1776 274.531 31.0611L276.32 31.3381H264.474V25.1591H282.18V30.4006C282.18 34.1364 281.384 37.3679 279.793 40.0952C278.202 42.8224 276.015 44.9247 273.231 46.402C270.447 47.8651 267.251 48.5966 263.643 48.5966C259.623 48.5966 256.093 47.6946 253.053 45.8906C250.028 44.0724 247.663 41.4943 245.958 38.1562C244.268 34.804 243.423 30.8267 243.423 26.2244C243.423 22.7017 243.92 19.5554 244.914 16.7855C245.923 14.0156 247.329 11.6648 249.133 9.73295C250.937 7.78693 253.053 6.30966 255.482 5.30114C257.911 4.27841 260.553 3.76704 263.408 3.76704C265.823 3.76704 268.075 4.12216 270.163 4.83239C272.251 5.52841 274.104 6.52273 275.724 7.81534C277.357 9.10795 278.7 10.642 279.751 12.4176C280.802 14.1932 281.491 16.1534 281.817 18.2983H273.763ZM289.824 48V4.36364H297.728V22.8366H317.949V4.36364H325.875V48H317.949V29.4631H297.728V48H289.824ZM332.554 10.9901V4.36364H367.37V10.9901H353.882V48H346.042V10.9901H332.554Z" fill="white"/>
</g>
<defs>
<clipPath id="clip0_11_2">
<rect width="368.1" height="54.301" fill="white"/>
</clipPath>
</defs>
</svg>
