<svg width="368.1" height="54.301" viewBox="0 0 368.1 54.301" xmlns="http://www.w3.org/2000/svg"><g id="svgGroup" stroke-linecap="round" fill-rule="evenodd" font-size="9pt" stroke="#ffffff" stroke-width="0.25mm" fill="#ffffff" style="stroke:#ffffff;stroke-width:0.25mm;fill:#ffffff"><path d="M 31.5 53.4 L 0 53.4 L 0 0.9 L 31.5 0.9 L 31.5 7.05 L 7.125 7.05 L 7.125 23.025 L 28.125 23.025 L 28.125 29.025 L 7.125 29.025 L 7.125 47.25 L 31.5 47.25 L 31.5 53.4 Z M 230.7 53.4 L 199.2 53.4 L 199.2 0.9 L 230.7 0.9 L 230.7 7.05 L 206.325 7.05 L 206.325 23.025 L 227.325 23.025 L 227.325 29.025 L 206.325 29.025 L 206.325 47.25 L 230.7 47.25 L 230.7 53.4 Z M 294.825 53.4 L 263.325 53.4 L 263.325 0.9 L 294.825 0.9 L 294.825 7.05 L 270.45 7.05 L 270.45 23.025 L 291.45 23.025 L 291.45 29.025 L 270.45 29.025 L 270.45 47.25 L 294.825 47.25 L 294.825 53.4 Z M 102.15 49.725 L 96.375 54.15 L 79.8 31.65 L 63.75 54 L 58.125 49.725 L 75.75 26.7 L 58.875 4.65 L 64.8 0.225 L 80.025 21.525 L 95.1 0.45 L 100.65 4.65 L 84.3 26.325 L 102.15 49.725 Z M 165.825 2.7 L 163.65 8.7 Q 161.325 7.575 158.888 6.9 A 17.261 17.261 0 0 0 156.59 6.439 Q 155.402 6.279 154.061 6.238 A 30.529 30.529 0 0 0 153.15 6.225 A 15.88 15.88 0 0 0 147.221 7.317 A 14.986 14.986 0 0 0 144.562 8.7 A 15.875 15.875 0 0 0 139.788 13.636 A 20.233 20.233 0 0 0 138.6 15.825 Q 136.595 20.112 136.438 26.056 A 38.694 38.694 0 0 0 136.425 27.075 A 31.397 31.397 0 0 0 136.887 32.592 A 23.197 23.197 0 0 0 138.562 38.1 A 19.258 19.258 0 0 0 141.252 42.471 A 16.067 16.067 0 0 0 144.488 45.45 A 14.777 14.777 0 0 0 152.846 48.073 A 17.92 17.92 0 0 0 153.15 48.075 Q 156.825 48.075 159.525 47.175 Q 162.225 46.275 164.775 44.85 L 166.95 50.775 Q 164.175 52.275 160.613 53.288 A 25.194 25.194 0 0 1 156.889 54.031 Q 155.027 54.266 152.929 54.296 A 43.064 43.064 0 0 1 152.325 54.3 A 24.288 24.288 0 0 1 145.331 53.324 A 20.97 20.97 0 0 1 140.25 51.038 A 21.45 21.45 0 0 1 132.843 43.204 A 26.187 26.187 0 0 1 132.075 41.738 A 28.208 28.208 0 0 1 129.751 34.45 Q 129.169 31.251 129.151 27.61 A 47.12 47.12 0 0 1 129.15 27.375 Q 129.15 19.35 132.113 13.163 A 23.727 23.727 0 0 1 137.347 5.939 A 22.395 22.395 0 0 1 140.512 3.488 A 22.028 22.028 0 0 1 150.023 0.179 A 27.969 27.969 0 0 1 153.225 0 Q 156.975 0 160.05 0.713 Q 163.125 1.425 165.825 2.7 Z M 327.45 53.25 L 327.45 1.05 Q 330.975 0.675 334.35 0.488 Q 337.25 0.326 340.871 0.304 A 192.432 192.432 0 0 1 342.075 0.3 Q 348.347 0.3 353.033 2.113 A 21.899 21.899 0 0 1 353.738 2.4 A 23.234 23.234 0 0 1 359.204 5.64 A 20.417 20.417 0 0 1 361.837 8.175 Q 365.025 11.85 366.563 16.688 A 33.192 33.192 0 0 1 368.041 24.934 A 38.63 38.63 0 0 1 368.1 27.075 Q 368.1 32.55 366.525 37.425 Q 364.95 42.3 361.688 46.013 A 21.726 21.726 0 0 1 355.496 50.85 A 26.443 26.443 0 0 1 353.363 51.863 Q 348.656 53.85 342.232 53.99 A 45.144 45.144 0 0 1 341.25 54 Q 337.977 54 335.341 53.868 A 76.125 76.125 0 0 1 333.788 53.775 Q 330.6 53.55 327.45 53.25 Z M 334.575 6.825 L 334.575 47.4 Q 336.15 47.625 337.875 47.7 A 80.448 80.448 0 0 0 340.547 47.77 A 90.965 90.965 0 0 0 341.475 47.775 Q 346.857 47.775 350.665 46.106 A 15.022 15.022 0 0 0 352.5 45.15 Q 356.775 42.525 358.8 37.838 A 24.219 24.219 0 0 0 360.491 31.782 A 31.877 31.877 0 0 0 360.825 27.075 Q 360.825 21.675 358.8 16.95 Q 356.775 12.225 352.575 9.338 Q 348.375 6.45 341.85 6.45 Q 339.675 6.45 337.875 6.563 Q 336.075 6.675 334.575 6.825 Z" vector-effect="non-scaling-stroke"/></g></svg>