<svg xmlns="http://www.w3.org/2000/svg" xmlns:xlink="http://www.w3.org/1999/xlink" version="1.1" width="1000" height="1000" viewBox="0 0 1000 1000" xml:space="preserve">
<desc>Created with Fabric.js 3.5.0</desc>
<defs>
</defs>
<rect x="0" y="0" width="100%" height="100%" fill="#ffffff"/>
<g transform="matrix(1 0 0 1 500 500)" style="" id="347182">
		
<path xml:space="preserve" font-family="Lato" font-size="140" font-style="normal" font-weight="bold" style="stroke: none; stroke-width: 1; stroke-dasharray: none; stroke-linecap: butt; stroke-dashoffset: 0; stroke-linejoin: miter; stroke-miterlimit: 4; is-custom-font: none; font-file-url: none; fill: rgb(255,255,255); fill-rule: nonzero; opacity: 1; white-space: pre;" d="M-305.06-57.24L-241.22-57.24L-241.22-42.26L-286.09-42.26L-286.09-14.19L-250.74-14.19L-250.74 0.30L-286.09 0.30L-286.09 28.93L-241.22 28.93L-241.22 43.98L-305.06 43.98L-305.06-57.24ZM-207.27 43.98L-173.60-8.10L-205.87-57.24L-187.11-57.24Q-185.15-57.24-184.27-56.72Q-183.40-56.19-182.70-55.00L-182.70-55.00L-159.67-17.83Q-159.32-18.74-158.90-19.62Q-158.48-20.49-157.92-21.40L-157.92-21.40L-136.85-54.65Q-135.31-57.24-132.86-57.24L-132.86-57.24L-114.80-57.24L-147.42-8.87L-113.89 43.98L-132.72 43.98Q-134.61 43.98-135.76 43.00Q-136.92 42.02-137.69 40.76L-137.69 40.76L-161.14 1.98Q-161.42 2.82-161.77 3.55Q-162.12 4.29-162.47 4.92L-162.47 4.92L-184.94 40.76Q-185.71 41.95-186.83 42.96Q-187.95 43.98-189.63 43.98L-189.63 43.98L-207.27 43.98ZM-6.23 20.11L-6.23 20.11Q-4.69 20.11-3.57 21.30L-3.57 21.30L3.85 29.35Q-2.31 36.98-11.30 41.04Q-20.30 45.10-32.90 45.10L-32.90 45.10Q-44.17 45.10-53.16 41.25Q-62.16 37.40-68.53 30.54Q-74.90 23.68-78.29 14.16Q-81.69 4.64-81.69-6.63L-81.69-6.63Q-81.69-18.04-77.91-27.53Q-74.13-37.01-67.27-43.87Q-60.41-50.73-50.85-54.55Q-41.30-58.36-29.75-58.36L-29.75-58.36Q-18.48-58.36-10.04-54.76Q-1.61-51.15 4.41-45.20L4.41-45.20L-1.89-36.45Q-2.45-35.61-3.32-34.98Q-4.20-34.35-5.74-34.35L-5.74-34.35Q-7.35-34.35-9.03-35.61Q-10.71-36.87-13.30-38.34Q-15.89-39.81-19.84-41.07Q-23.80-42.33-29.89-42.33L-29.89-42.33Q-37.03-42.33-43.01-39.85Q-49.00-37.36-53.30-32.74Q-57.61-28.12-60.02-21.51Q-62.44-14.89-62.44-6.63L-62.44-6.63Q-62.44 1.91-60.02 8.56Q-57.61 15.21-53.48 19.76Q-49.35 24.31-43.75 26.72Q-38.15 29.14-31.71 29.14L-31.71 29.14Q-27.86 29.14-24.74 28.72Q-21.63 28.30-19.00 27.39Q-16.38 26.48-14.03 25.04Q-11.69 23.61-9.38 21.51L-9.38 21.51Q-8.68 20.88-7.91 20.49Q-7.14 20.11-6.23 20.11ZM45.08-57.24L108.92-57.24L108.92-42.26L64.05-42.26L64.05-14.19L99.40-14.19L99.40 0.30L64.05 0.30L64.05 28.93L108.92 28.93L108.92 43.98L45.08 43.98L45.08-57.24ZM152.25-57.24L216.09-57.24L216.09-42.26L171.22-42.26L171.22-14.19L206.57-14.19L206.57 0.30L171.22 0.30L171.22 28.93L216.09 28.93L216.09 43.98L152.25 43.98L152.25-57.24ZM349.30-6.63L349.30-6.63Q349.30 4.50 345.59 13.81Q341.88 23.12 335.16 29.84Q328.44 36.56 318.99 40.27Q309.54 43.98 298.06 43.98L298.06 43.98L259.42 43.98L259.42-57.24L298.06-57.24Q309.54-57.24 318.99-53.50Q328.44-49.75 335.16-43.07Q341.88-36.38 345.59-27.07Q349.30-17.76 349.30-6.63ZM330.05-6.63L330.05-6.63Q330.05-14.96 327.81-21.58Q325.57-28.19 321.44-32.78Q317.31-37.36 311.40-39.81Q305.48-42.26 298.06-42.26L298.06-42.26L278.39-42.26L278.39 29.00L298.06 29.00Q305.48 29.00 311.40 26.55Q317.31 24.10 321.44 19.51Q325.57 14.93 327.81 8.31Q330.05 1.70 330.05-6.63Z"/></g>
</svg>